<?xml version="1.0" encoding="UTF-8"?><svg id="a" xmlns="http://www.w3.org/2000/svg" xmlns:xlink="http://www.w3.org/1999/xlink" viewBox="0 0 552.39 243.39"><defs><style>.c{fill:url(#b);}.d{fill:#fff;}.e{fill:#FFF;}.f{fill:#d10a11;stroke:#fff;stroke-miterlimit:10;}</style><linearGradient id="b" x1="199.53" y1="1.64" x2="353.05" y2="147.1" gradientTransform="matrix(1, 0, 0, 1, 0, 0)" gradientUnits="userSpaceOnUse"><stop offset=".05" stop-color="#fff"/><stop offset=".08" stop-color="#f9e3e3"/><stop offset=".12" stop-color="#f1b6b8"/><stop offset=".18" stop-color="#e98c90"/><stop offset=".23" stop-color="#e2696d"/><stop offset=".29" stop-color="#dd4b50"/><stop offset=".36" stop-color="#d83339"/><stop offset=".43" stop-color="#d52027"/><stop offset=".52" stop-color="#d2131a"/><stop offset=".63" stop-color="#d10c13"/><stop offset=".86" stop-color="#d10a11"/></linearGradient></defs><g><path class="f" d="M270.92,138.07c-37.93,0-68.79-30.86-68.79-68.79S233,.5,270.92,.5s68.79,30.86,68.79,68.79-30.86,68.79-68.79,68.79Z"/><path class="c" d="M270.92,135.16c-36.33,0-65.88-29.55-65.88-65.88S234.6,3.41,270.92,3.41s65.88,29.55,65.88,65.88-29.56,65.88-65.88,65.88Z"/><g><rect class="d" x="272.35" y="55.55" width="6.3" height="25.99"/><path class="d" d="M331.29,64.36l-52.39,.02v-8.83h-6.79v8.84h-8.52c-.05-.01-.14-.02-.28-.02l-16.69,.02c1.72-2.07,2.76-4.72,2.76-7.61,0-6.58-5.35-11.93-11.92-11.93s-11.77,5.21-11.91,11.67c-.52-.07-1.04-.12-1.58-.12-5.19,0-9.6,3.34-11.24,7.97h-2.17c-2.05,0-3.71,1.67-3.71,3.73,0,2.05,1.67,3.71,3.72,3.71h2c1.5,4.88,6.04,8.44,11.41,8.44,.43,0,.85-.03,1.27-.07,0,.04,0,.08,0,.12,0,6.58,5.35,11.92,11.92,11.92s11.92-5.35,11.92-11.92c0-3.31-1.36-6.31-3.55-8.47h.47c.05,0,.11,.02,.22,.02h25.89v9.7h6.79v-9.72h25.29v5.86l-10.89,7.29v8.75l12.15-8.32c1.6,4.34,5.06,7.3,10.55,7.3h.1c3.21,0,5.88-1.02,7.77-2.91,2.24-2.24,3.45-5.59,3.45-9.92v-8.07h3.97c2.05,0,3.71-1.68,3.71-3.73,0-2.05-1.67-3.71-3.72-3.71Zm-93.83-13.47c3.24,0,5.87,2.64,5.87,5.88s-2.63,5.88-5.87,5.88c-1.62,0-3.09-.66-4.15-1.72-.1-.13-.21-.25-.32-.38-.86-1.02-1.41-2.33-1.41-3.77,0-3.24,2.63-5.88,5.88-5.88Zm-19.37,17.43c0-3.24,2.64-5.87,5.88-5.87,1.62,0,3.09,.66,4.16,1.73,.09,.11,.19,.23,.28,.34,.88,1.03,1.44,2.34,1.44,3.8,0,3.24-2.64,5.88-5.88,5.88s-5.88-2.64-5.88-5.88Zm19.06,17.85c-3.24,0-5.88-2.64-5.88-5.88s2.64-5.88,5.88-5.88,5.88,2.64,5.88,5.88-2.64,5.88-5.88,5.88Zm83.42-6.93c0,3.65-1.65,5.88-4.86,5.88h-.1c-2.87,0-4.81-2.09-4.81-5.73v-7.58h9.77v7.43Z"/></g></g><path class="d" d="M13.59,190.59H5.82v12.76H0v-39.38H14.42c6.93,0,13.37,5.05,13.37,13.31,0,6.16-3.55,10.54-8.26,12.37l8.6,13.7h-6.54l-7.99-12.76Zm-7.76-5.49H14.42c4.1,0,7.6-2.94,7.6-7.82s-3.49-7.82-7.6-7.82H5.82v15.64Z"/><path class="d" d="M48.08,169.46v10.93h12.31v5.49h-12.31v11.98h15.81v5.49h-21.63v-39.38h21.63v5.49h-15.81Z"/><path class="d" d="M100.99,194.14h-16.3l-3.33,9.21h-5.99l14.2-39.38h6.54l14.2,39.38h-5.99l-3.33-9.21Zm-1.94-5.49l-6.21-17.14-6.16,17.14h12.37Z"/><path class="d" d="M145.25,197.86v5.49h-21.85v-39.38h5.77v33.89h16.08Z"/><path class="d" d="M178.03,169.46h-9.48v33.89h-5.77v-33.89h-9.48v-5.49h24.73v5.49Z"/><path class="d" d="M187.68,183.66c0-11.15,8.71-20.24,19.97-20.24s19.97,9.1,19.97,20.24-8.76,20.24-19.97,20.24-19.97-9.1-19.97-20.24Zm34.11,0c0-8.04-6.04-14.75-14.14-14.75s-14.2,6.71-14.2,14.75,6.04,14.75,14.2,14.75,14.14-6.71,14.14-14.75Z"/><path class="d" d="M254.9,190.59h-7.76v12.76h-5.82v-39.38h14.42c6.93,0,13.37,5.05,13.37,13.31,0,6.16-3.55,10.54-8.26,12.37l8.6,13.7h-6.54l-7.99-12.76Zm-7.76-5.49h8.6c4.1,0,7.6-2.94,7.6-7.82s-3.49-7.82-7.6-7.82h-8.6v15.64Z"/><g><g><path class="e" d="M175.45,236.73h-3.88v6.38h-2.91v-19.69h7.21c3.47,0,6.68,2.52,6.68,6.66,0,3.08-1.78,5.27-4.13,6.18l4.3,6.85h-3.27l-3.99-6.38Zm-3.88-2.75h4.3c2.05,0,3.8-1.47,3.8-3.91s-1.75-3.91-3.8-3.91h-4.3v7.82Z"/><path class="e" d="M194.09,226.16v5.46h6.16v2.75h-6.16v5.99h7.9v2.75h-10.82v-19.69h10.82v2.75h-7.9Z"/><path class="e" d="M221.93,238.5h-8.15l-1.66,4.6h-3l7.1-19.69h3.27l7.1,19.69h-3l-1.66-4.6Zm-.97-2.75l-3.11-8.57-3.08,8.57h6.19Z"/><path class="e" d="M245.45,240.36v2.75h-10.93v-19.69h2.88v16.95h8.04Z"/><path class="e" d="M270.26,226.16v5.46h6.16v2.75h-6.16v5.99h7.9v2.75h-10.82v-19.69h10.82v2.75h-7.9Z"/><path class="e" d="M287.82,237.39c.14,2.22,1.8,3.25,3.61,3.25,2.05,0,3.22-1.05,3.22-2.47,0-1.8-1.69-2.69-3.99-3.88-3.69-2.08-5.3-3.44-5.3-6.21,0-2.91,2.52-4.94,5.71-4.94,3.41,0,5.69,2.55,5.8,5.71h-2.88c-.11-1.8-1.28-2.97-2.91-2.97s-2.83,.92-2.83,2.3c0,1.78,1.36,2.41,3.44,3.5,3.58,1.89,5.88,3.55,5.88,6.6,0,3.22-2.72,5.1-6.13,5.1-3.88,0-6.38-2.75-6.49-5.99h2.88Z"/><path class="e" d="M316.41,226.16h-4.74v16.95h-2.88v-16.95h-4.74v-2.75h12.37v2.75Z"/><path class="e" d="M333.41,238.5h-8.15l-1.66,4.6h-3l7.1-19.69h3.27l7.1,19.69h-3l-1.66-4.6Zm-.97-2.75l-3.11-8.57-3.08,8.57h6.19Z"/><path class="e" d="M355.45,226.16h-4.74v16.95h-2.88v-16.95h-4.74v-2.75h12.37v2.75Z"/><path class="e" d="M366.04,226.16v5.46h6.16v2.75h-6.16v5.99h7.9v2.75h-10.82v-19.69h10.82v2.75h-7.9Z"/></g><rect class="d" x="396.53" y="230.41" width="110.61" height="2.55"/><rect class="d" x="34.71" y="230.41" width="110.61" height="2.55"/></g><g><path class="d" d="M346.76,181.92c0,13.51-7.97,21.98-19.71,21.98s-19.44-9.19-19.44-20.21,8.19-20.21,20.05-20.21c6.87,0,11.96,3.27,15.5,8.14l-4.37,3.38c-2.33-3.32-5.92-6.04-11.13-6.04-8.31,0-14.29,6.53-14.29,14.73s5.65,14.73,13.68,14.73c7.2,0,12.24-4.49,13.57-11.02h-14.95v-5.48h21.1Z"/><path class="d" d="M382.25,197.87v5.48h-21.82v-39.32h5.76v33.83h16.06Z"/><path class="d" d="M391.88,183.69c0-11.13,8.69-20.21,19.94-20.21s19.93,9.08,19.93,20.21-8.75,20.21-19.93,20.21-19.94-9.08-19.94-20.21Zm34.05,0c0-8.03-6.03-14.73-14.12-14.73s-14.18,6.7-14.18,14.73,6.04,14.73,14.18,14.73,14.12-6.7,14.12-14.73Z"/><path class="d" d="M472.61,192.22c0,7.14-5.37,11.13-13.84,11.13h-12.62v-39.32h11.79c8.2,0,12.46,4.32,12.46,10.41,0,3.38-1.61,6.15-4.15,7.92,3.65,1.94,6.37,5.37,6.37,9.86Zm-20.71-12.24h6.04c4.26,0,6.64-1.61,6.64-5.26,0-3.38-2.38-5.21-6.64-5.21h-6.04v10.47Zm14.9,11.91c0-3.76-2.71-6.42-7.75-6.42h-7.14v12.4h6.87c5.32,0,8.03-2.16,8.03-5.98Z"/><path class="d" d="M508.15,194.16h-16.28l-3.32,9.19h-5.98l14.18-39.32h6.53l14.18,39.32h-5.98l-3.32-9.19Zm-1.94-5.48l-6.2-17.11-6.15,17.11h12.35Z"/><path class="d" d="M552.39,197.87v5.48h-21.82v-39.32h5.76v33.83h16.06Z"/></g></svg>